<?xml version="1.0" standalone="no"?>
<!DOCTYPE svg PUBLIC "-//W3C//DTD SVG 20010904//EN"
 "http://www.w3.org/TR/2001/REC-SVG-20010904/DTD/svg10.dtd">
<svg version="1.0" xmlns="http://www.w3.org/2000/svg"
 width="512.000000pt" height="512.000000pt" viewBox="0 0 512.000000 512.000000"
 preserveAspectRatio="xMidYMid meet">
<metadata>
Created by potrace 1.14, written by Peter Selinger 2001-2017
</metadata>
<g transform="translate(0.000000,512.000000) scale(0.100000,-0.100000)"
fill="#000000" stroke="none">
<path d="M1488 4745 c-2 -1 -25 -5 -53 -8 -165 -19 -288 -54 -459 -129 -62
-27 -234 -123 -246 -137 -3 -3 -32 -26 -65 -51 -249 -184 -485 -504 -574 -777
-23 -73 -56 -224 -66 -303 -4 -30 -11 -82 -15 -115 -8 -60 -5 -388 3 -435 2
-14 8 -50 12 -80 8 -67 70 -310 89 -353 8 -18 21 -52 31 -77 29 -77 107 -231
159 -315 253 -404 683 -768 1248 -1058 148 -76 355 -171 443 -202 28 -10 55
-22 60 -25 16 -12 302 -106 405 -134 127 -34 410 -95 515 -110 23 -4 52 -8 65
-11 130 -25 327 -40 535 -40 223 0 289 6 452 39 441 90 750 321 924 693 169
361 214 889 110 1274 -35 130 -70 222 -111 293 -11 20 -29 53 -41 74 -102 181
-290 357 -490 457 -69 35 -215 88 -274 100 -225 44 -457 51 -794 22 -28 -2
-33 9 -51 128 -34 225 -96 354 -269 555 -276 320 -695 593 -1056 689 -41 10
-70 16 -160 31 -45 7 -319 12 -327 5z"/>
</g>
</svg>
